<svg xmlns="http://www.w3.org/2000/svg" viewBox="0 0 256 256" width="256" height="256" fill="none">
  <defs>
    <filter id="chr-shadow" x="20" y="20" width="216" height="220" filterUnits="userSpaceOnUse">
      <feDropShadow dx="0" dy="6" stdDeviation="6" flood-color="#020617" flood-opacity="0.72" />
    </filter>
    <linearGradient id="chr-bg" x1="0" y1="0" x2="256" y2="256" gradientUnits="userSpaceOnUse">
      <stop offset="0%" stop-color="#162038" />
      <stop offset="52%" stop-color="#0C1222" />
      <stop offset="100%" stop-color="#060912" />
    </linearGradient>
    <radialGradient id="chr-glow-top" cx="28%" cy="18%" r="78%">
      <stop offset="0%" stop-color="#4285F4" stop-opacity="0.36" />
      <stop offset="55%" stop-color="#EA4335" stop-opacity="0.14" />
      <stop offset="100%" stop-color="#0C1222" stop-opacity="0" />
    </radialGradient>
    <radialGradient id="chr-glow-bottom" cx="82%" cy="86%" r="62%">
      <stop offset="0%" stop-color="#34A853" stop-opacity="0.25" />
      <stop offset="100%" stop-color="#0C1222" stop-opacity="0" />
    </radialGradient>
    <linearGradient id="chr-rim" x1="128" y1="0" x2="128" y2="256" gradientUnits="userSpaceOnUse">
      <stop offset="0%" stop-color="#D2E3FC" stop-opacity="0.65" />
      <stop offset="25%" stop-color="#4285F4" stop-opacity="0.3" />
      <stop offset="80%" stop-color="#172554" stop-opacity="0.25" />
      <stop offset="100%" stop-color="#34A853" stop-opacity="0.4" />
    </linearGradient>
    <linearGradient id="chr-sheen" x1="128" y1="0" x2="128" y2="115" gradientUnits="userSpaceOnUse">
      <stop offset="0%" stop-color="#FFFFFF" stop-opacity="0.16" />
      <stop offset="100%" stop-color="#FFFFFF" stop-opacity="0" />
    </linearGradient>
    <clipPath id="chr-clip">
      <rect x="0" y="0" width="256" height="256" rx="58" />
    </clipPath>
    
  </defs>
  <g clip-path="url(#chr-clip)">
    <rect x="0" y="0" width="256" height="256" fill="url(#chr-bg)" />
    <rect x="0" y="0" width="256" height="256" fill="url(#chr-glow-top)" />
    <rect x="0" y="0" width="256" height="256" fill="url(#chr-glow-bottom)" />
    <ellipse cx="128" cy="4" rx="126" ry="64" fill="url(#chr-sheen)" />
  </g>
  <rect x="1.5" y="1.5" width="253" height="253" rx="56.5" stroke="url(#chr-rim)" stroke-width="3" />
  <g filter="url(#chr-shadow)">
    <svg x="50" y="50" width="156" height="156" viewBox="0 0 256 256" preserveAspectRatio="xMidYMid meet"><path fill="#fff" d="M128.003 199.216c39.335 0 71.221-31.888 71.221-71.223S167.338 56.77 128.003 56.77S56.78 88.658 56.78 127.993s31.887 71.223 71.222 71.223"/><path fill="#229342" d="M35.89 92.997Q27.92 79.192 17.154 64.02a127.98 127.98 0 0 0 110.857 191.981q17.671-24.785 23.996-35.74q12.148-21.042 31.423-60.251v-.015a63.993 63.993 0 0 1-110.857.017Q46.395 111.19 35.89 92.998"/><path fill="#fbc116" d="M128.008 255.996A127.97 127.97 0 0 0 256 127.997A128 128 0 0 0 238.837 64q-36.372-3.585-53.686-3.585q-19.632 0-57.152 3.585l-.014.01a63.99 63.99 0 0 1 55.444 31.987a63.99 63.99 0 0 1-.001 64.01z"/><path fill="#1a73e8" d="M128.003 178.677c27.984 0 50.669-22.685 50.669-50.67s-22.685-50.67-50.67-50.67c-27.983 0-50.669 22.686-50.669 50.67s22.686 50.67 50.67 50.67"/><path fill="#e33b2e" d="M128.003 64.004H238.84a127.973 127.973 0 0 0-221.685.015l55.419 95.99l.015.008a63.993 63.993 0 0 1 55.415-96.014z"/></svg>
  </g>
</svg>
