<svg xmlns="http://www.w3.org/2000/svg" viewBox="0 0 256 256" width="256" height="256" fill="none">
  <defs>
    <filter id="hwi-shadow" x="20" y="20" width="216" height="220" filterUnits="userSpaceOnUse">
      <feDropShadow dx="0" dy="6" stdDeviation="6" flood-color="#020617" flood-opacity="0.72" />
    </filter>
    <linearGradient id="hwi-bg" x1="0" y1="0" x2="256" y2="256" gradientUnits="userSpaceOnUse">
      <stop offset="0%" stop-color="#0A213D" />
      <stop offset="52%" stop-color="#051224" />
      <stop offset="100%" stop-color="#020811" />
    </linearGradient>
    <radialGradient id="hwi-glow-top" cx="28%" cy="18%" r="78%">
      <stop offset="0%" stop-color="#38BDF8" stop-opacity="0.38" />
      <stop offset="55%" stop-color="#0284C7" stop-opacity="0.14" />
      <stop offset="100%" stop-color="#051224" stop-opacity="0" />
    </radialGradient>
    <radialGradient id="hwi-glow-bottom" cx="82%" cy="86%" r="62%">
      <stop offset="0%" stop-color="#60A5FA" stop-opacity="0.24" />
      <stop offset="100%" stop-color="#051224" stop-opacity="0" />
    </radialGradient>
    <linearGradient id="hwi-rim" x1="128" y1="0" x2="128" y2="256" gradientUnits="userSpaceOnUse">
      <stop offset="0%" stop-color="#BAE6FD" stop-opacity="0.62" />
      <stop offset="25%" stop-color="#38BDF8" stop-opacity="0.3" />
      <stop offset="80%" stop-color="#0C4A6E" stop-opacity="0.24" />
      <stop offset="100%" stop-color="#60A5FA" stop-opacity="0.4" />
    </linearGradient>
    <linearGradient id="hwi-sheen" x1="128" y1="0" x2="128" y2="115" gradientUnits="userSpaceOnUse">
      <stop offset="0%" stop-color="#FFFFFF" stop-opacity="0.16" />
      <stop offset="100%" stop-color="#FFFFFF" stop-opacity="0" />
    </linearGradient>
    <clipPath id="hwi-clip">
      <rect x="0" y="0" width="256" height="256" rx="58" />
    </clipPath>
    
  </defs>
  <g clip-path="url(#hwi-clip)">
    <rect x="0" y="0" width="256" height="256" fill="url(#hwi-bg)" />
    <rect x="0" y="0" width="256" height="256" fill="url(#hwi-glow-top)" />
    <rect x="0" y="0" width="256" height="256" fill="url(#hwi-glow-bottom)" />
    <ellipse cx="128" cy="4" rx="126" ry="64" fill="url(#hwi-sheen)" />
  </g>
  <rect x="1.5" y="1.5" width="253" height="253" rx="56.5" stroke="url(#hwi-rim)" stroke-width="3" />
  <g filter="url(#hwi-shadow)">
    
      <rect x="60" y="68" width="136" height="120" rx="18" fill="#0369A1" stroke="#7DD3FC" stroke-width="8"/>
      <rect x="80" y="96" width="22" height="64" rx="6" fill="#FFFFFF"/>
      <rect x="116" y="116" width="22" height="44" rx="6" fill="#7DD3FC"/>
      <rect x="152" y="88" width="22" height="72" rx="6" fill="#38BDF8"/>
    
  </g>
</svg>
