<svg xmlns="http://www.w3.org/2000/svg" width="153" height="32" viewBox="0 0 180 38" role="img" aria-label="Troubleshooting">
  <defs>
    <linearGradient id="pill" x1="0" y1="0" x2="0" y2="1">
      <stop offset="0" stop-color="#18253c"/><stop offset="1" stop-color="#0b1422"/>
    </linearGradient>
    <linearGradient id="edge" x1="0" y1="0" x2="0" y2="1">
      <stop offset="0" stop-color="#ffffff" stop-opacity=".36"/>
      <stop offset=".5" stop-color="#ffffff" stop-opacity=".10"/>
      <stop offset="1" stop-color="#ffffff" stop-opacity=".04"/>
    </linearGradient>
    <linearGradient id="ink" gradientUnits="userSpaceOnUse" x1="0" y1="0" x2="24" y2="24">
      <stop offset="0" stop-color="#7bead2"/><stop offset="1" stop-color="#7fb2ff"/>
    </linearGradient>
    <linearGradient id="top" x1="0" y1="0" x2="0" y2="1">
      <stop offset="0" stop-color="#ffffff" stop-opacity=".075"/>
      <stop offset="1" stop-color="#ffffff" stop-opacity="0"/>
    </linearGradient>
  </defs>
  <rect x=".7" y=".7" width="178.6" height="36.6" rx="18.3" fill="url(#pill)"/>
  <rect x=".7" y=".7" width="178.6" height="36.6" rx="18.3" fill="url(#top)"/>
  <rect x=".7" y=".7" width="178.6" height="36.6" rx="18.3" fill="none" stroke="url(#edge)" stroke-width="1.3"/>
  <g transform="translate(16,10.5) scale(0.7083)" fill="none" stroke="url(#ink)" stroke-width="2.2" stroke-linecap="round" stroke-linejoin="round">
    <circle cx="12" cy="12" r="8.7"/><circle cx="12" cy="12" r="3.7"/>
    <path d="M5.9 5.9l3.5 3.5M18.1 5.9l-3.5 3.5M5.9 18.1l3.5-3.5M18.1 18.1l-3.5-3.5"/>
  </g>
  <text x="42.5" y="24.5" font-family='"Segoe UI",system-ui,sans-serif' font-size="14" font-weight="700" fill="#e2ebf8">Troubleshooting</text>
</svg>
