<svg xmlns="http://www.w3.org/2000/svg" viewBox="0 0 256 256" width="256" height="256" fill="none">
  <defs>
    <filter id="btd-shadow" x="20" y="20" width="216" height="220" filterUnits="userSpaceOnUse">
      <feDropShadow dx="0" dy="6" stdDeviation="6" flood-color="#020617" flood-opacity="0.72" />
    </filter>
    <linearGradient id="btd-bg" x1="0" y1="0" x2="256" y2="256" gradientUnits="userSpaceOnUse">
      <stop offset="0%" stop-color="#10203B" />
      <stop offset="52%" stop-color="#091326" />
      <stop offset="100%" stop-color="#040914" />
    </linearGradient>
    <radialGradient id="btd-glow-top" cx="28%" cy="18%" r="78%">
      <stop offset="0%" stop-color="#3E82E5" stop-opacity="0.38" />
      <stop offset="55%" stop-color="#2563EB" stop-opacity="0.14" />
      <stop offset="100%" stop-color="#091326" stop-opacity="0" />
    </radialGradient>
    <radialGradient id="btd-glow-bottom" cx="82%" cy="86%" r="62%">
      <stop offset="0%" stop-color="#60A5FA" stop-opacity="0.25" />
      <stop offset="100%" stop-color="#091326" stop-opacity="0" />
    </radialGradient>
    <linearGradient id="btd-rim" x1="128" y1="0" x2="128" y2="256" gradientUnits="userSpaceOnUse">
      <stop offset="0%" stop-color="#BFDBFE" stop-opacity="0.62" />
      <stop offset="25%" stop-color="#3E82E5" stop-opacity="0.3" />
      <stop offset="80%" stop-color="#1E3A8A" stop-opacity="0.24" />
      <stop offset="100%" stop-color="#60A5FA" stop-opacity="0.4" />
    </linearGradient>
    <linearGradient id="btd-sheen" x1="128" y1="0" x2="128" y2="115" gradientUnits="userSpaceOnUse">
      <stop offset="0%" stop-color="#FFFFFF" stop-opacity="0.16" />
      <stop offset="100%" stop-color="#FFFFFF" stop-opacity="0" />
    </linearGradient>
    <clipPath id="btd-clip">
      <rect x="0" y="0" width="256" height="256" rx="58" />
    </clipPath>
    
  </defs>
  <g clip-path="url(#btd-clip)">
    <rect x="0" y="0" width="256" height="256" fill="url(#btd-bg)" />
    <rect x="0" y="0" width="256" height="256" fill="url(#btd-glow-top)" />
    <rect x="0" y="0" width="256" height="256" fill="url(#btd-glow-bottom)" />
    <ellipse cx="128" cy="4" rx="126" ry="64" fill="url(#btd-sheen)" />
  </g>
  <rect x="1.5" y="1.5" width="253" height="253" rx="56.5" stroke="url(#btd-rim)" stroke-width="3" />
  <g filter="url(#btd-shadow)">
    <svg x="52" y="52" width="152" height="152" viewBox="0 0 24 24" preserveAspectRatio="xMidYMid meet"><path fill="#3E82E5" d="M14.393.861q.514.258.964.57a6.6 6.6 0 0 1 2.122 2.387c.513.987.792 2.133.828 3.409v9.556c-.035 1.275-.313 2.422-.828 3.408a6.6 6.6 0 0 1-2.122 2.387a8 8 0 0 1-.933.555h.933c4.46.024 8.643-2.205 8.643-7.315V8.352c.024-5.21-4.16-7.49-8.62-7.49zM0 .867v9.197l5.693 5.127V5.44h3.31c3.537 0 3.537 4.444 0 4.444H6.817v4.244h2.188c3.536 0 3.536 4.441 0 4.441H0v4.57h8.904c4.59 0 8.151-1.836 8.278-6.388c0-2.094-.574-3.66-1.584-4.748c1.01-1.087 1.584-2.652 1.584-4.746c-.125-4.553-3.687-6.39-8.278-6.39z"/></svg>
  </g>
</svg>
