<svg xmlns="http://www.w3.org/2000/svg" viewBox="0 0 256 256" width="256" height="256" fill="none">
  <defs>
    <filter id="psh-shadow" x="20" y="20" width="216" height="220" filterUnits="userSpaceOnUse">
      <feDropShadow dx="0" dy="6" stdDeviation="6" flood-color="#020617" flood-opacity="0.72" />
    </filter>
    <linearGradient id="psh-bg" x1="0" y1="0" x2="256" y2="256" gradientUnits="userSpaceOnUse">
      <stop offset="0%" stop-color="#0A192F" />
      <stop offset="52%" stop-color="#061020" />
      <stop offset="100%" stop-color="#020710" />
    </linearGradient>
    <radialGradient id="psh-glow-top" cx="28%" cy="18%" r="78%">
      <stop offset="0%" stop-color="#38BDF8" stop-opacity="0.38" />
      <stop offset="55%" stop-color="#0284C7" stop-opacity="0.14" />
      <stop offset="100%" stop-color="#061020" stop-opacity="0" />
    </radialGradient>
    <radialGradient id="psh-glow-bottom" cx="82%" cy="86%" r="62%">
      <stop offset="0%" stop-color="#60A5FA" stop-opacity="0.24" />
      <stop offset="100%" stop-color="#061020" stop-opacity="0" />
    </radialGradient>
    <linearGradient id="psh-rim" x1="128" y1="0" x2="128" y2="256" gradientUnits="userSpaceOnUse">
      <stop offset="0%" stop-color="#BAE6FD" stop-opacity="0.62" />
      <stop offset="25%" stop-color="#38BDF8" stop-opacity="0.3" />
      <stop offset="80%" stop-color="#0C4A6E" stop-opacity="0.24" />
      <stop offset="100%" stop-color="#60A5FA" stop-opacity="0.4" />
    </linearGradient>
    <linearGradient id="psh-sheen" x1="128" y1="0" x2="128" y2="115" gradientUnits="userSpaceOnUse">
      <stop offset="0%" stop-color="#FFFFFF" stop-opacity="0.16" />
      <stop offset="100%" stop-color="#FFFFFF" stop-opacity="0" />
    </linearGradient>
    <clipPath id="psh-clip">
      <rect x="0" y="0" width="256" height="256" rx="58" />
    </clipPath>
    
  </defs>
  <g clip-path="url(#psh-clip)">
    <rect x="0" y="0" width="256" height="256" fill="url(#psh-bg)" />
    <rect x="0" y="0" width="256" height="256" fill="url(#psh-glow-top)" />
    <rect x="0" y="0" width="256" height="256" fill="url(#psh-glow-bottom)" />
    <ellipse cx="128" cy="4" rx="126" ry="64" fill="url(#psh-sheen)" />
  </g>
  <rect x="1.5" y="1.5" width="253" height="253" rx="56.5" stroke="url(#psh-rim)" stroke-width="3" />
  <g filter="url(#psh-shadow)">
    <svg x="48" y="48" width="160" height="160" viewBox="0 0 128 128" preserveAspectRatio="xMidYMid meet"><linearGradient id="psh_SVGxPWimdiY" x1="96.306" x2="25.454" y1="35.144" y2="98.431" gradientTransform="matrix(1 0 0 -1 0 128)" gradientUnits="userSpaceOnUse"><stop offset="0" stop-color="#a9c8ff"/><stop offset="1" stop-color="#c7e6ff"/></linearGradient><path fill="url(#psh_SVGxPWimdiY)" fill-rule="evenodd" d="M7.2 110.5c-1.7 0-3.1-.7-4.1-1.9s-1.3-2.9-.9-4.6l18.6-80.5c.8-3.4 4-6 7.4-6h92.6c1.7 0 3.1.7 4.1 1.9s1.3 2.9.9 4.6l-18.6 80.5c-.8 3.4-4 6-7.4 6z" clip-rule="evenodd" opacity=".8"/><linearGradient id="psh_SVGEdQI3gkp" x1="25.336" x2="94.569" y1="98.33" y2="36.847" gradientTransform="matrix(1 0 0 -1 0 128)" gradientUnits="userSpaceOnUse"><stop offset="0" stop-color="#2d4664"/><stop offset=".169" stop-color="#29405b"/><stop offset=".445" stop-color="#1e2f43"/><stop offset=".79" stop-color="#0c131b"/><stop offset="1"/></linearGradient><path fill="url(#psh_SVGEdQI3gkp)" fill-rule="evenodd" d="M120.3 18.5H28.5c-2.9 0-5.7 2.3-6.4 5.2L3.7 104.3c-.7 2.9 1.1 5.2 4 5.2h91.8c2.9 0 5.7-2.3 6.4-5.2l18.4-80.5c.7-2.9-1.1-5.3-4-5.3" clip-rule="evenodd"/><path fill="#2c5591" fill-rule="evenodd" d="M64.2 88.3h22.3c2.6 0 4.7 2.2 4.7 4.9s-2.1 4.9-4.7 4.9H64.2c-2.6 0-4.7-2.2-4.7-4.9s2.1-4.9 4.7-4.9m14.5-21.8c-.4.8-1.2 1.6-2.6 2.6L34.6 98.9c-2.3 1.6-5.5 1-7.3-1.4c-1.7-2.4-1.3-5.7.9-7.3l37.4-27.1v-.6l-23.5-25c-1.9-2-1.7-5.3.4-7.4c2.2-2 5.5-2 7.4 0l28.2 30c1.7 1.9 1.8 4.5.6 6.4" clip-rule="evenodd"/><path fill="#fff" fill-rule="evenodd" d="M77.6 65.5c-.4.8-1.2 1.6-2.6 2.6L33.6 97.9c-2.3 1.6-5.5 1-7.3-1.4c-1.7-2.4-1.3-5.7.9-7.3l37.4-27.1v-.6l-23.5-25c-1.9-2-1.7-5.3.4-7.4c2.2-2 5.5-2 7.4 0l28.2 30c1.7 1.8 1.8 4.4.5 6.4M63.5 87.8h22.3c2.6 0 4.7 2.1 4.7 4.6c0 2.6-2.1 4.6-4.7 4.6H63.5c-2.6 0-4.7-2.1-4.7-4.6c0-2.6 2.1-4.6 4.7-4.6" clip-rule="evenodd"/></svg>
  </g>
</svg>
